<?xml version="1.0" encoding="UTF-8"?>
<svg xmlns:xlink="http://www.w3.org/1999/xlink" width="945px" height="547px" viewBox="0 0 945 547" version="1.1"
     xmlns="http://www.w3.org/2000/svg">
    <title></title>
    <g id="页面-1" stroke="none" stroke-width="1" fill="none" fill-rule="evenodd">
        <g id="土储分析" transform="translate(-469.000000, -3516.000000)">
            <g id="编组-89" transform="translate(469.000000, 3516.000000)">
                <g id="地图" transform="translate(1.000000, 18.000000)" fill-rule="nonzero">
                    <!-- 新疆 -->
                    <polygon id="新疆" stroke="#FFFFFF" fill="#F0F5FF"
                             points="256.14864 160.95132 256.14864 161.6064 251.24208 164.87736 252.22368 167.4948 254.18556 168.8034 251.24208 173.38308 243.39 177.96276 242.4084 175.34544 235.53888 179.92512 229.65096 185.8134 227.68788 191.7018 218.8554 192.35688 213.94776 207.40464 211.0032 211.98432 211.0032 215.25684 211.0032 216.56544 186.4686 224.4162 188.43156 228.34224 191.37504 227.03352 190.39356 234.23064 196.28268 240.11892 199.22724 245.3538 192.35652 249.93336 193.33812 252.5508 196.28268 253.85796 196.28268 260.40144 194.3196 261.05508 184.50552 257.78412 183.52404 260.40144 181.56096 260.40144 175.67292 257.13048 170.7654 256.4754 168.8034 254.51304 155.06328 255.16668 142.30464 259.09272 141.32316 263.6724 135.43512 266.28984 129.546 265.6362 119.73192 270.86952 107.95488 270.21588 105.0114 266.28984 100.10376 265.6362 95.19732 271.5246 91.27128 272.83332 77.53104 270.21588 75.56808 272.17824 76.54956 274.14048 75.56808 273.48696 71.64312 279.37524 70.66152 283.95492 62.81052 284.61 61.82904 286.57236 52.99644 280.68396 51.03348 272.83332 51.03348 268.90728 44.16276 269.5608 37.29324 266.94492 34.34868 263.6724 30.42372 264.3276 27.47916 261.05508 28.46076 254.51304 26.49768 251.24208 22.57164 250.587 21.59124 247.31604 17.66508 246.66096 15.70212 247.96968 14.72052 246.00732 11.77716 245.3538 11.77716 243.39 15.70212 243.39 18.64668 240.11892 15.70212 238.15668 16.6836 235.53924 15.70212 225.07128 9.81408 221.79876 7.851 221.79876 6.86952 223.76256 3.92496 223.10748 2.94348 219.18144 3.92496 217.21908 0 211.33068 4.90644 209.36844 4.90644 206.751 3.92496 205.4424 5.88804 201.51624 15.70212 196.93656 14.72052 194.31924 19.62816 195.62796 23.55312 192.35688 25.5162 197.5902 32.3868 196.28304 38.27484 187.12212 46.12584 187.12212 52.01496 183.85116 52.01496 181.23372 74.58768 171.41928 75.56808 168.14832 74.58768 162.91356 75.56808 159.6426 78.51264 158.98896 77.53104 156.37164 81.4572 154.40928 77.53104 140.01516 77.53104 133.47168 72.6246 130.20072 72.6246 128.23692 92.25276 121.695 96.17772 124.31232 101.08536 124.31232 98.1408 117.76896 106.97328 94.21536 113.844 97.48644 125.62104 97.48644 127.58304 99.45024 134.45364 96.8328 136.41672 93.56028 134.45364 81.12996 137.3982 76.55028 146.2308 74.58648 149.17416 70.66188 148.19268 68.6982 149.17416 66.08076 159.96972 65.42712 160.95132 68.04456 158.98824 69.35328 162.91428 71.96916 161.9328 73.93296 167.82192 77.20392 169.7838 80.47488 174.69144 83.09232 179.59788 82.43868 181.56096 85.05612 185.487 85.05612 188.43156 87.672 190.39356 94.21536 194.3196 98.14152 196.28268 104.02992 194.3196 107.9544 196.28268 112.53564 192.35652 116.46024 192.35652 119.73264 194.3196 124.31232 202.1706 126.27468 223.76184 128.23692 237.50196 137.39784 244.37148 138.05136 244.37148 141.97752 246.33456 143.93976 250.2606 153.7542 255.16704 158.33388"></polygon>
                    <text id="新疆" fill="#4F4F69" font-family="PingFangSC-Regular, PingFang SC" font-size="13"
                          font-weight="normal">
                        <tspan x="114.08334" y="177.0005">新疆</tspan>
                    </text>

                    <!-- 西藏 -->
                    <polygon id="西藏" stroke="#FFFFFF" fill="#F0F5FF"
                             points="61.82904 286.57236 62.81052 284.61 70.66152 283.95492 71.64312 279.37524 75.56808 273.48696 76.54956 274.14048 75.56808 272.17824 77.53104 270.21588 91.27128 272.83332 95.19732 271.5246 100.10376 265.6362 105.0114 266.28984 107.95488 270.21588 119.73192 270.86952 129.546 265.6362 135.43512 266.28984 141.32316 263.6724 142.30464 259.09272 155.06328 255.16668 168.8034 254.51304 170.7654 256.4754 175.67292 257.13048 181.56096 260.40144 177.636 261.05508 178.61748 263.01888 181.56096 264.98112 181.56096 270.21588 178.61748 270.86952 178.61748 272.83332 179.59788 278.06664 182.54244 278.72172 181.56096 281.3376 182.54244 285.91872 180.57948 291.15204 185.487 299.00412 192.35652 304.23744 200.20872 304.23744 206.09676 308.81856 209.04132 308.81856 210.0228 310.12584 217.8738 310.12584 223.76184 314.05188 226.7064 312.74316 230.63244 314.70696 236.52048 312.08964 242.4084 314.70696 240.44652 316.66932 242.4084 316.01424 243.39 317.97792 244.37148 318.63156 244.37148 321.249 245.35296 323.86632 249.27912 325.82868 251.24208 323.86632 253.20408 327.13728 254.18556 321.90408 257.13012 325.17504 261.05616 325.82868 260.07468 321.249 265.96272 319.94028 266.9442 312.74316 270.87024 313.39824 275.7768 316.01424 278.72136 323.21124 283.62888 329.75472 280.68432 333.02568 284.60928 339.56916 286.57236 361.81392 284.60928 363.77772 284.60928 368.3574 282.6474 367.70232 282.6474 365.74008 281.66592 367.04868 280.68432 372.93708 282.6474 375.55452 281.66592 377.51676 277.73976 378.82548 276.75828 374.89944 275.7768 378.82548 268.90728 372.93708 265.96272 379.47912 266.9442 382.09644 263.01924 384.71388 257.13012 378.82548 248.29752 376.86312 244.37148 378.82548 243.39 381.4428 231.61392 387.3312 227.68788 395.18184 224.74332 396.49056 208.05972 397.79928 207.07824 388.63992 202.1706 387.3312 202.1706 382.09644 200.20872 380.1342 196.28268 382.75152 192.35652 379.47912 182.54244 377.51676 180.57948 378.17184 174.69144 386.67612 174.69144 390.60216 173.70996 392.56596 170.7654 389.29356 171.74688 380.78772 169.7838 378.82548 163.89588 382.09644 160.95132 381.4428 158.98824 383.40516 152.11872 383.40516 148.19268 378.82548 146.2308 378.82548 145.2492 382.09644 141.32316 378.82548 140.34168 382.09644 136.41672 375.55452 135.43512 376.86312 130.5276 375.55452 130.5276 370.97484 127.58304 372.282 122.67648 369.66612 120.71352 367.70232 119.73192 362.469 118.75044 361.81392 112.8624 363.12264 108.93636 357.23424 97.1592 350.03724 96.17772 346.11108 88.32672 345.45756 86.36364 350.69232 84.40176 347.4198 73.60608 342.1866 69.68004 336.95172 61.82904 334.98948 58.88448 331.06344 59.86596 327.13728 57.903 323.86632 58.88448 322.5576 55.93992 319.28664 54.95844 313.39824 58.88448 310.78092 60.84756 316.01424 64.77252 312.74316 62.81052 303.5838 57.903 296.3868 57.903 289.84332 60.84756 289.18968"></polygon>
                    <text id="西藏" fill="#4F4F69" font-family="PingFangSC-Regular, PingFang SC" font-size="13"
                          font-weight="normal">
                        <tspan x="168.42204" y="341.6969">西藏</tspan>
                    </text>

                    <!-- 内蒙古 -->
                    <polygon id="路径" stroke="#FFFFFF" fill="#F0F5FF"
                             points="264.98112 160.29768 290.4984 163.56864 305.21904 162.25992 316.0146 164.87736 318.95916 168.8034 326.81016 170.11068 333.68076 174.03672 339.5688 175.34544 346.4394 174.03672 346.4394 177.30768 352.32744 178.6164 360.17844 173.38308 378.82512 165.531 401.39784 165.531 412.1934 160.95132 419.064 152.44548 429.85968 147.21228 429.85968 145.24848 423.97056 136.74276 427.8966 127.5834 429.85968 126.27468 448.50624 131.50944 454.39428 128.23692 458.32032 121.695 471.07896 121.03992 476.967 117.11532 477.94848 113.18928 480.89304 108.6096 489.72564 107.30088 490.70712 104.02992 494.63208 104.68344 500.5212 101.41248 505.42764 102.06612 507.39072 101.41248 509.3538 102.7212 516.22332 103.37472 519.16788 102.06612 516.22332 94.869 502.48428 83.09232 495.61356 82.43868 489.72564 87.672 483.83652 84.40092 476.967 85.05612 474.02244 87.672 470.09748 84.40092 469.11588 80.47488 473.04084 79.16616 473.04084 74.58648 482.85612 55.61268 494.63208 60.19236 503.46576 54.30408 511.31676 51.68664 512.29836 48.41568 510.33528 47.76204 514.26132 41.87364 514.26132 39.90996 516.22332 37.29252 521.13084 28.13316 527.01888 24.20712 528.00036 21.59124 528.00036 19.62744 526.0374 18.31872 527.01888 15.70284 524.0754 13.73904 520.14936 14.39412 520.14936 12.43032 528.98196 4.57968 535.85148 3.27096 539.77752 7.85064 532.908 15.04776 537.81444 17.01 538.79604 18.9738 541.74048 18.9738 543.70356 15.70284 549.5916 19.62744 548.61 22.24476 552.53616 33.36792 556.46112 34.67664 560.38716 32.71284 568.23816 34.02156 570.20124 32.71284 574.12728 32.71284 576.09036 28.78824 579.03384 28.78824 586.88592 37.9476 583.94136 41.87364 583.94136 45.14472 579.03384 51.033 577.07184 55.61268 578.05224 65.42712 573.1458 66.08076 569.21976 81.12996 567.25668 75.24156 546.64704 92.25312 553.51764 102.06612 557.4426 99.45024 557.4426 98.14152 558.42408 98.14152 559.40568 100.10376 559.40568 99.45024 559.40568 102.7212 553.51764 104.02992 555.48072 109.26312 550.57308 112.53564 549.5916 117.11532 546.64704 114.49788 544.68504 115.8066 539.77752 112.53564 538.79604 116.46024 540.759 117.11532 544.68504 123.65724 542.72208 129.54564 545.66664 138.70644 554.49912 135.43404 558.42408 146.5572 556.46112 149.82816 560.38716 151.79196 559.40568 157.02516 556.46112 157.68024 554.49912 160.29768 550.57308 161.6064 545.66664 159.6426 545.66664 162.25992 541.74048 161.6064 538.79604 165.531 535.85148 164.87736 525.0558 170.76576 521.13084 176.65404 518.18628 169.45704 514.26132 166.8396 512.29836 168.14832 511.31676 176.65404 513.27984 177.96276 511.31676 182.54244 501.50268 182.54244 498.55812 176.00052 500.5212 175.34544 500.5212 170.76576 498.55812 171.41928 496.59516 168.8034 497.57664 166.18608 494.63208 162.91356 491.6886 163.56864 489.72564 165.531 484.818 166.18608 483.83652 172.07436 477.94848 172.07436 475.00392 175.34544 474.02244 173.38308 466.17132 178.6164 463.22688 177.96276 462.24528 170.76576 458.32032 170.11068 454.39428 175.34544 455.37576 178.6164 451.4508 180.5802 452.4312 183.85116 451.4508 185.15988 453.4128 191.04828 453.4128 194.31924 450.46932 194.31924 447.52476 196.93656 443.59872 196.28304 438.69216 199.554 433.78464 198.24528 429.85968 208.05972 423.97056 207.40464 422.98896 210.67716 420.0456 211.33068 420.0456 208.05972 415.13796 212.6394 409.24992 210.02208 410.23032 212.6394 406.30536 213.29304 407.28696 214.60176 396.49128 227.03352 397.47288 231.6132 395.5098 232.26684 394.52832 231.6132 393.54672 236.19288 387.6588 237.5016 381.76968 233.57556 377.84472 230.30448 371.9556 228.99588 369.01104 227.03352 373.91868 217.21908 371.9556 211.33068 367.04916 212.6394 362.14152 221.14512 361.16004 234.88416 344.47644 240.11892 334.66236 234.23064 333.68076 231.6132 335.64384 229.65096 334.66236 226.37844 343.49484 217.21908 341.53188 210.67716 333.68076 211.98432 329.75472 215.25684 323.86668 213.29304 316.99608 215.25684 318.95916 218.5278 316.0146 221.79876 311.10804 220.49004 310.12656 216.56544 307.182 217.87416 305.21904 210.67716 302.27556 210.67716 296.38644 205.4424 290.4984 204.13368 297.36792 198.24528 298.34952 192.35688 295.40496 187.12212 287.55384 189.08592 285.59088 191.7018 284.60928 190.39308 282.6474 193.01052 279.70284 191.04828 280.68432 192.35688 277.73976 193.6656 277.73976 188.43084 267.92568 179.92512 271.85184 177.96276 271.85184 176.00052"></polygon>
                    <text id="内蒙古" fill="#4F4F69" font-family="PingFangSC-Regular, PingFang SC" font-size="13"
                          font-weight="normal">
                        <tspan x="472.62884" y="138.3846">内蒙古</tspan>
                    </text>

                    <!-- 青海 -->
                    <polygon id="路径" stroke="#FFFFFF" fill="#F0F5FF"
                             points="181.56096 260.40144 183.52404 260.40144 184.50552 257.78412 194.3196 261.05508 196.28268 260.40144 196.28268 253.85796 193.33812 252.5508 192.35652 249.93336 199.22724 245.3538 196.28268 240.11892 190.39356 234.23064 191.37504 227.03352 188.43156 228.34224 186.4686 224.4162 211.0032 216.56544 211.0032 215.25684 219.83688 213.94812 219.83688 217.21908 225.72492 217.87416 227.68788 221.14512 232.59432 220.49004 235.53888 226.37844 240.44652 225.7248 245.35296 227.68716 248.29752 226.37844 254.18556 230.30448 256.14864 228.34224 259.0932 228.99588 259.0932 225.07128 263.99964 223.10748 263.01924 213.94812 275.7768 219.83652 277.73976 216.56544 280.68432 217.87416 282.6474 215.91036 286.57236 217.87416 294.42456 226.37844 298.34952 227.68716 296.38644 225.07128 297.36792 224.4162 301.29408 227.68716 304.23852 228.34224 309.14508 234.23064 313.07112 233.57556 316.0146 237.5016 317.97756 236.19288 319.94064 240.11892 324.84828 244.04508 323.86668 247.31604 325.82976 249.27828 324.84828 250.587 327.79164 256.4754 329.75472 257.78412 328.77324 260.40144 328.77324 263.01888 325.82976 264.98112 327.79164 267.59856 323.86668 267.59856 321.90372 270.21588 322.8852 273.48696 317.97756 278.72172 317.97756 281.99268 320.92212 285.26364 319.94064 287.22744 315.0342 289.84332 307.182 285.91872 305.21904 287.22744 310.12656 296.3868 313.07112 295.73172 314.0526 298.34904 316.0146 298.34904 315.0342 301.62156 316.0146 302.92872 314.0526 304.23744 309.14508 302.92872 310.12656 310.78092 304.23852 311.43456 304.23852 313.39824 300.31248 310.12584 297.36792 311.43456 297.36792 308.16348 294.42456 306.20124 293.44296 310.12584 287.55384 307.50996 287.55384 305.54616 283.62888 303.5838 278.72136 290.4984 271.85184 288.5346 269.88876 289.84332 270.87024 292.46076 266.9442 293.11584 267.92568 297.69552 270.87024 300.31284 266.9442 308.16348 267.92568 310.78092 270.87024 313.39824 266.9442 312.74316 265.96272 319.94028 260.07468 321.249 261.05616 325.82868 257.13012 325.17504 254.18556 321.90408 253.20408 327.13728 251.24208 323.86632 249.27912 325.82868 245.35296 323.86632 244.37148 321.249 244.37148 318.63156 243.39 317.97792 242.4084 316.01424 240.44652 316.66932 242.4084 314.70696 236.52048 312.08964 230.63244 314.70696 226.7064 312.74316 223.76184 314.05188 217.8738 310.12584 210.0228 310.12584 209.04132 308.81856 206.09676 308.81856 200.20872 304.23744 192.35652 304.23744 185.487 299.00412 180.57948 291.15204 182.54244 285.91872 181.56096 281.3376 182.54244 278.72172 179.59788 278.06664 178.61748 272.83332 178.61748 270.86952 181.56096 270.21588 181.56096 264.98112 178.61748 263.01888 177.636 261.05508"></polygon>
                    <text id="青海" fill="#4F4F69" font-family="PingFangSC-Regular, PingFang SC" font-size="13"
                          font-weight="normal">
                        <tspan x="240.68494" y="271.2165">青海</tspan>
                    </text>

                    <!-- 四川 -->
                    <polygon id="四川" stroke="#FFFFFF" fill="#7A92F5"
                             points="316.0146 298.34904 316.99608 297.69552 317.97756 299.65776 316.99608 304.89252 323.86668 299.65776 320.92212 292.46076 328.77324 286.57236 330.7362 288.5346 331.7178 294.42444 342.51336 297.04044 343.49484 300.31284 345.45792 301.62156 344.47644 302.92872 345.45792 305.54616 344.47644 308.16348 345.45792 310.12584 354.29052 312.08964 356.25348 310.12584 356.25348 308.16348 357.23508 307.50996 358.21548 310.12584 364.1046 308.16348 364.1046 310.12584 367.04916 311.43456 374.90016 310.78092 375.88164 314.05188 376.86324 314.70696 378.82512 313.39824 385.69572 318.63156 388.64028 317.32284 391.58376 317.97792 389.62068 318.63156 388.64028 322.5576 391.58376 325.82868 387.6588 328.446 384.71424 338.26044 379.8066 338.26044 378.82512 339.56916 379.8066 341.5314 374.90016 350.69232 371.9556 350.69232 369.99252 346.11108 366.06756 348.07488 361.16004 344.14884 359.19696 346.76628 358.21548 349.3836 360.17844 352.65456 355.272 357.88788 357.23508 361.1604 360.17844 361.81392 361.16004 366.3936 366.06756 367.70232 367.04916 372.93708 363.123 369.66612 359.19696 374.2458 362.14152 378.82548 365.08608 378.82548 367.04916 383.40516 359.19696 386.02248 358.21548 384.06024 355.272 384.71388 354.29052 380.78772 352.32744 379.47912 350.36436 382.09644 345.45792 381.4428 344.47644 380.1342 345.45792 378.82548 345.45792 376.86312 343.49484 374.2458 345.45792 371.62836 339.5688 370.97484 338.58732 376.20804 334.66236 378.82548 334.66236 384.06024 328.77324 391.25724 329.75472 404.99628 325.82976 407.61372 324.84828 404.99628 319.94064 408.92244 316.99608 409.57596 314.0526 406.95864 315.0342 404.99628 312.08964 401.72532 312.08964 398.45436 312.08964 399.76152 309.14508 395.18184 309.14508 393.2196 304.23852 382.75152 300.31248 383.40516 299.331 384.71388 296.38644 378.82548 298.34952 375.55452 292.46148 368.3574 289.51692 372.93708 289.51692 378.17184 287.55384 376.20804 286.57236 361.81392 284.60928 339.56916 280.68432 333.02568 283.62888 329.75472 278.72136 323.21124 275.7768 316.01424 270.87024 313.39824 267.92568 310.78092 266.9442 308.16348 270.87024 300.31284 267.92568 297.69552 266.9442 293.11584 270.87024 292.46076 269.88876 289.84332 271.85184 288.5346 278.72136 290.4984 283.62888 303.5838 287.55384 305.54616 287.55384 307.50996 293.44296 310.12584 294.42456 306.20124 297.36792 308.16348 297.36792 311.43456 300.31248 310.12584 304.23852 313.39824 304.23852 311.43456 310.12656 310.78092 309.14508 302.92872 314.0526 304.23744 316.0146 302.92872 315.0342 301.62156"></polygon>
                    <text id="四川" fill="#4F4F69" font-family="PingFangSC-Regular, PingFang SC" font-size="13"
                          font-weight="normal">
                        <tspan x="315.27394" y="349.0749">四川</tspan>
                    </text>

                    <!-- 黑龙江 -->
                    <polygon id="黑龙江" stroke="#FFFFFF" fill="#F0F5FF"
                             points="535.85148 3.27096 560.38716 0 574.12728 7.19712 576.09036 5.23332 581.9784 7.19712 582.95988 9.813 587.86632 11.7768 586.88592 14.39412 588.84792 15.70284 590.81088 18.9738 590.81088 20.28252 592.77396 20.93604 591.79248 24.20712 596.7 32.71284 595.71852 34.02156 597.6816 33.36792 596.7 36.63888 600.62496 41.87364 601.60656 49.07076 604.55112 49.7244 603.56952 54.95916 606.51408 58.88376 617.30976 59.53884 621.23472 62.8098 625.16076 61.50108 633.99324 70.0068 638.90088 70.0068 636.9378 73.27788 640.86276 78.51264 638.90088 81.12996 642.82584 87.672 659.51052 87.01836 660.49212 83.7474 665.39856 81.12996 670.3062 81.12996 678.1572 77.20392 687.97128 76.55028 684.04524 79.16616 682.08216 83.09232 684.04524 87.672 682.08216 90.9444 680.12028 90.9444 678.1572 93.56028 678.1572 95.52408 674.23116 104.68344 675.21264 108.6096 670.3062 115.15152 669.3246 119.07756 667.36164 119.73264 665.39856 125.62104 663.43548 126.92976 652.63992 122.34864 648.71496 126.92976 642.82584 129.54564 645.7704 141.32388 644.78892 146.5572 645.7704 150.48324 640.86276 151.13688 636.9378 147.8658 634.97484 142.63104 631.04868 144.59484 630.0672 141.97752 629.0868 143.93976 623.19768 145.24848 622.2162 148.51944 618.29124 149.17452 614.3652 140.01516 613.3836 135.43404 609.45756 137.39784 609.45756 140.6688 605.5326 140.6688 603.56952 133.47168 598.662 133.47168 597.6816 130.85436 598.662 127.5834 596.7 125.62104 592.77396 123.65724 586.88592 124.96596 583.94136 123.00372 582.95988 119.73264 576.09036 121.695 574.12728 119.73264 568.23816 121.03992 564.3132 116.46024 563.33172 109.26312 555.48072 109.26312 553.51764 104.02992 559.40568 102.7212 559.40568 99.45024 559.40568 100.10376 558.42408 98.14152 557.4426 98.14152 557.4426 99.45024 553.51764 102.06612 546.64704 92.25312 567.25668 75.24156 569.21976 81.12996 573.1458 66.08076 578.05224 65.42712 577.07184 55.61268 579.03384 51.033 583.94136 45.14472 583.94136 41.87364 586.88592 37.9476 579.03384 28.78824 576.09036 28.78824 574.12728 32.71284 570.20124 32.71284 568.23816 34.02156 560.38716 32.71284 556.46112 34.67664 552.53616 33.36792 548.61 22.24476 549.5916 19.62744 543.70356 15.70284 541.74048 18.9738 538.79604 18.9738 537.81444 17.01 532.908 15.04776 539.77752 7.85064"></polygon>
                    <text id="黑龙江" fill="#4F4F69" font-family="PingFangSC-Regular, PingFang SC" font-size="13"
                          font-weight="normal">
                        <tspan x="590.43904" y="95.5716">黑龙江</tspan>
                    </text>

                    <!-- 甘肃 -->
                    <polygon id="甘肃" stroke="#FFFFFF" fill="#CDDCFE"
                             points="256.14864 161.6064 264.98112 160.29768 271.85184 176.00052 271.85184 177.96276 267.92568 179.92512 277.73976 188.43084 277.73976 193.6656 280.68432 192.35688 279.70284 191.04828 282.6474 193.01052 284.60928 190.39308 285.59088 191.7018 287.55384 189.08592 295.40496 187.12212 298.34952 192.35688 297.36792 198.24528 290.4984 204.13368 296.38644 205.4424 302.27556 210.67716 305.21904 210.67716 307.182 217.87416 310.12656 216.56544 311.10804 220.49004 316.0146 221.79876 318.95916 218.5278 316.99608 215.25684 323.86668 213.29304 329.75472 215.25684 333.68076 211.98432 341.53188 210.67716 343.49484 217.21908 334.66236 226.37844 335.64384 229.65096 333.68076 231.6132 334.66236 234.23064 344.47644 240.11892 347.4198 240.11892 347.4198 243.39 350.36436 243.39 355.272 249.27828 354.29052 251.24208 357.23508 259.74792 355.272 261.71016 356.25348 264.98112 360.17844 265.6362 361.16004 268.25208 363.123 269.5608 362.14152 270.21588 363.123 270.21588 364.1046 270.86952 366.06756 270.21588 367.04916 272.83332 369.01104 271.5246 368.02956 266.28984 370.97412 266.28984 373.91868 264.3276 372.93708 259.74792 369.01104 257.78412 369.01104 254.51304 368.02956 253.20444 369.99252 249.93336 369.99252 245.3538 377.84472 245.3538 377.84472 247.96968 393.54672 256.4754 392.56524 261.71016 391.58376 263.6724 392.56524 268.25208 391.58376 272.17824 382.75116 272.17824 382.75116 274.79556 383.73276 276.10428 381.76968 277.413 376.86324 278.06664 373.91868 275.4492 369.99252 275.4492 369.01104 280.03032 367.04916 282.6462 370.97412 286.57236 369.01104 287.22744 369.99252 289.18968 368.02956 292.46076 369.01104 298.34904 363.123 297.04044 360.17844 300.31284 363.123 303.5838 362.14152 306.20124 357.23508 307.50996 356.25348 308.16348 356.25348 310.12584 354.29052 312.08964 345.45792 310.12584 344.47644 308.16348 345.45792 305.54616 344.47644 302.92872 345.45792 301.62156 343.49484 300.31284 342.51336 297.04044 331.7178 294.42444 330.7362 288.5346 328.77324 286.57236 320.92212 292.46076 323.86668 299.65776 316.99608 304.89252 317.97756 299.65776 316.99608 297.69552 316.0146 298.34904 314.0526 298.34904 313.07112 295.73172 310.12656 296.3868 305.21904 287.22744 307.182 285.91872 315.0342 289.84332 319.94064 287.22744 320.92212 285.26364 317.97756 281.99268 317.97756 278.72172 322.8852 273.48696 321.90372 270.21588 323.86668 267.59856 327.79164 267.59856 325.82976 264.98112 328.77324 263.01888 328.77324 260.40144 329.75472 257.78412 327.79164 256.4754 324.84828 250.587 325.82976 249.27828 323.86668 247.31604 324.84828 244.04508 319.94064 240.11892 317.97756 236.19288 316.0146 237.5016 313.07112 233.57556 309.14508 234.23064 304.23852 228.34224 301.29408 227.68716 297.36792 224.4162 296.38644 225.07128 298.34952 227.68716 294.42456 226.37844 286.57236 217.87416 282.6474 215.91036 280.68432 217.87416 277.73976 216.56544 275.7768 219.83652 263.01924 213.94812 263.99964 223.10748 259.0932 225.07128 259.0932 228.99588 256.14864 228.34224 254.18556 230.30448 248.29752 226.37844 245.35296 227.68716 240.44652 225.7248 235.53888 226.37844 232.59432 220.49004 227.68788 221.14512 225.72492 217.87416 219.83688 217.21908 219.83688 213.94812 211.0032 215.25684 211.0032 211.98432 213.94776 207.40464 218.8554 192.35688 227.68788 191.7018 229.65096 185.8134 235.53888 179.92512 242.4084 175.34544 243.39 177.96276 251.24208 173.38308 254.18556 168.8034 252.22368 167.4948 251.24208 164.87736"></polygon>
                    <text id="甘肃" fill="#4F4F69" font-family="PingFangSC-Regular, PingFang SC" font-size="13"
                          font-weight="normal">
                        <tspan x="234.85634" y="200.6019">甘肃</tspan>
                    </text>

                    <!-- 云南 -->
                    <polygon id="云南" stroke="#FFFFFF" fill="#9EB0F6"
                             points="275.7768 378.82548 276.75828 374.89944 277.73976 378.82548 281.66592 377.51676 282.6474 375.55452 280.68432 372.93708 281.66592 367.04868 282.6474 365.74008 282.6474 367.70232 284.60928 368.3574 284.60928 363.77772 286.57236 361.81392 287.55384 376.20804 289.51692 378.17184 289.51692 372.93708 292.46148 368.3574 298.34952 375.55452 296.38644 378.82548 299.331 384.71388 300.31248 383.40516 304.23852 382.75152 309.14508 393.2196 309.14508 395.18184 312.08964 399.76152 312.08964 398.45436 312.08964 401.72532 315.0342 404.99628 314.0526 406.95864 316.99608 409.57596 319.94064 408.92244 324.84828 404.99628 325.82976 407.61372 329.75472 404.99628 328.77324 391.25724 334.66236 384.06024 334.66236 378.82548 338.58732 376.20804 339.5688 370.97484 345.45792 371.62836 343.49484 374.2458 345.45792 376.86312 345.45792 378.82548 344.47644 380.1342 345.45792 381.4428 350.36436 382.09644 352.32744 379.47912 354.29052 380.78772 355.272 384.71388 354.29052 389.94864 347.4198 390.60216 345.45792 388.63992 342.51336 391.91088 339.5688 389.29356 336.62424 395.18184 337.60572 395.83692 337.60572 399.108 339.5688 402.37896 345.45792 400.4166 348.4014 404.34276 344.47644 414.81072 350.36436 422.00784 347.4198 424.62528 348.4014 425.93388 346.4394 429.20496 348.4014 435.09324 349.38288 433.131 352.32744 433.78464 354.29052 439.0194 357.23508 439.67292 358.21548 438.3642 363.123 438.3642 365.08608 442.94388 365.08608 446.87004 359.19696 448.83228 358.21548 452.1048 355.272 449.48736 350.36436 452.75844 349.38288 457.33812 344.47644 459.95544 342.51336 457.9932 340.55028 461.91924 336.62424 458.64672 335.64384 461.26416 333.68076 457.9932 330.7362 463.2264 323.86668 458.64672 321.90372 463.88148 316.99608 464.53512 316.0146 462.57288 314.0526 467.15256 316.99608 475.65828 316.0146 482.85528 314.0526 481.54668 310.12656 482.20176 309.14508 473.69592 303.25704 478.2756 297.36792 477.62052 295.40496 469.11624 287.55384 467.80764 289.51692 461.26416 288.53544 459.3018 290.4984 454.06704 283.62888 452.1048 281.66592 440.98164 283.62888 438.3642 275.7768 439.0194 270.87024 442.29036 268.90728 441.63528 270.87024 438.3642 269.88876 433.78464 268.90728 433.78464 268.90728 429.20496 270.87024 427.89624 271.85184 421.35276 275.7768 419.3904 275.7768 416.11944 277.73976 416.77308 279.70284 412.84848 281.66592 412.1934 280.68432 409.57596 281.66592 408.26736 282.6474 401.72532 281.66592 387.98484 279.70284 386.02248 277.73976 387.98484"></polygon>
                    <text id="云南" fill="#4F4F69" font-family="PingFangSC-Regular, PingFang SC" font-size="13"
                          font-weight="normal">
                        <tspan x="303.49604" y="438.525">云南</tspan>
                    </text>


                    <!-- 广西 -->
                    <polygon id="广西" stroke="#FFFFFF" fill="#CDDCFE"
                             points="346.4394 429.20496 348.4014 431.1672 354.29052 425.93388 363.123 430.51356 365.08608 428.54976 365.08608 425.93388 372.93708 422.66148 374.90016 421.35276 373.91868 418.0818 376.86324 416.11944 379.8066 422.00784 382.75116 422.00784 383.73276 423.31656 386.6772 422.00784 387.6588 418.73688 389.62068 417.42816 392.56524 420.69912 392.56524 416.77308 397.47288 417.42816 396.49128 414.15564 400.41624 414.81072 402.37932 410.23104 405.32388 412.1934 407.28696 407.61372 410.23032 410.88468 414.15648 405.65136 421.026 405.65136 422.00748 406.95864 422.00748 412.1934 423.97056 412.84848 419.064 425.2788 420.0456 425.93388 422.98896 423.31656 424.95204 430.51356 426.91512 428.54976 430.84008 429.20496 428.87808 430.51356 430.84008 435.09324 428.87808 437.0556 428.87808 440.328 427.8966 442.94388 425.93352 442.94388 425.93352 444.90768 422.98896 448.17876 423.97056 454.72212 422.00748 457.9932 416.11944 461.91924 416.11944 465.84384 415.13796 467.80764 411.21192 467.80764 411.21192 471.73224 407.28696 472.38732 406.30536 475.00464 405.32388 475.65828 405.32388 478.92924 403.3608 478.2756 398.45436 479.58432 399.43476 486.78144 397.47288 485.47272 397.47288 476.967 393.54672 476.967 392.56524 475.00464 388.64028 477.62052 383.73276 475.65828 378.82512 475.65828 374.90016 473.04084 374.90016 471.0786 370.97412 469.76988 369.99252 463.88148 371.9556 458.64672 370.97412 456.68448 362.14152 456.0294 358.21548 454.06704 358.21548 452.1048 359.19696 448.83228 365.08608 446.87004 365.08608 442.94388 363.123 438.3642 358.21548 438.3642 357.23508 439.67292 354.29052 439.0194 352.32744 433.78464 349.38288 433.131 348.4014 435.09324"></polygon>
                    <text id="广西" fill="#4F4F69" font-family="PingFangSC-Regular, PingFang SC" font-size="13"
                          font-weight="normal">
                        <tspan x="381.82444" y="446.5629">广西</tspan>
                    </text>

                    <!-- 湖南 -->
                    <polygon id="湖南" stroke="#FFFFFF" fill="#33BED1"
                             points="399.43476 373.59072 399.43476 363.77772 402.37932 356.58072 404.3424 356.58072 405.32388 354.61692 413.17488 355.92564 415.13796 354.61692 413.17488 350.69232 417.10104 348.72852 427.8966 351.99948 432.80304 357.88788 435.7476 356.58072 437.71068 357.23424 440.65524 353.96328 441.63564 354.61692 440.65524 358.54296 441.63564 359.1966 447.52476 353.3082 447.52476 355.272 449.48784 357.23424 448.50624 361.1604 449.48784 364.43136 451.4508 365.08488 454.39428 368.3574 453.4128 372.282 455.37576 375.55452 449.48784 381.4428 448.50624 386.67612 448.50624 389.94864 450.46932 391.25724 449.48784 393.87324 451.4508 396.49056 451.4508 401.07024 453.4128 401.72532 452.4312 407.61372 455.37576 408.26736 452.4312 409.57596 451.4508 418.73688 448.50624 420.69912 443.59872 417.42816 439.67376 420.0456 441.63564 422.00784 441.63564 425.93388 439.67376 426.58752 436.7292 423.31656 432.80304 422.66148 431.82156 427.2426 430.84008 429.20496 426.91512 428.54976 424.95204 430.51356 422.98896 423.31656 420.0456 425.93388 419.064 425.2788 423.97056 412.84848 422.00748 412.1934 422.00748 406.95864 421.026 405.65136 414.15648 405.65136 410.23032 410.88468 407.28696 407.61372 405.32388 412.1934 402.37932 410.23104 401.39784 406.305 399.43476 405.65136 401.39784 401.72532 400.41624 399.76152 402.37932 398.45436 402.37932 395.18184 400.41624 393.2196 395.5098 395.18184 394.52832 393.87324 401.39784 386.67612 400.41624 382.09644 400.41624 376.86312"></polygon>
                    <text id="湖南" fill="#4F4F69" font-family="PingFangSC-Regular, PingFang SC" font-size="13"
                          font-weight="normal">
                        <tspan x="411.45204" y="390.9478">湖南</tspan>
                    </text>

                    <!-- 陕西 -->
                    <polygon id="陕西" stroke="#FFFFFF" fill="#94B8FB"
                             points="357.23508 307.50996 362.14152 306.20124 363.123 303.5838 360.17844 300.31284 363.123 297.04044 369.01104 298.34904 368.02956 292.46076 369.99252 289.18968 369.01104 287.22744 370.97412 286.57236 367.04916 282.6462 369.01104 280.03032 369.99252 275.4492 373.91868 275.4492 376.86324 278.06664 381.76968 277.413 383.73276 276.10428 382.75116 274.79556 382.75116 272.17824 391.58376 272.17824 392.56524 268.25208 391.58376 263.6724 392.56524 261.71016 393.54672 256.4754 377.84472 247.96968 377.84472 245.3538 377.84472 237.5016 381.76968 233.57556 387.6588 237.5016 393.54672 236.19288 394.52832 231.6132 395.5098 232.26684 397.47288 231.6132 396.49128 227.03352 407.28696 214.60176 406.30536 213.29304 410.23032 212.6394 409.24992 210.02208 415.13796 212.6394 420.0456 208.05972 420.0456 211.33068 421.026 213.29304 418.08252 221.14512 417.10104 224.4162 413.17488 228.99588 413.17488 232.26684 417.10104 236.84796 412.1934 246.66096 413.17488 259.74792 414.15648 266.94492 410.23032 278.06664 410.23032 281.3376 412.1934 282.6462 413.17488 287.88108 415.13796 289.18968 415.13796 293.76936 419.064 298.34904 419.064 302.2752 416.11944 304.23744 414.15648 302.2752 411.21192 303.5838 403.3608 302.2752 401.39784 304.23744 405.32388 305.54616 405.32388 307.50996 409.24992 310.12584 409.24992 312.08964 404.3424 312.08964 402.37932 314.70696 403.3608 325.17504 399.43476 325.17504 397.47288 321.90408 391.58376 317.97792 388.64028 317.32284 385.69572 318.63156 378.82512 313.39824 376.86324 314.70696 375.88164 314.05188 374.90016 310.78092 367.04916 311.43456 364.1046 310.12584 364.1046 308.16348 358.21548 310.12584"></polygon>
                    <text id="陕西" fill="#4F4F69" font-family="PingFangSC-Regular, PingFang SC" font-size="13"
                          font-weight="normal">
                        <tspan x="389.81704" y="267.9444">陕西</tspan>
                    </text>

                    <!-- 广东 -->
                    <path id="广东" stroke="#FFFFFF" fill="#7A92F5"
                          d="M405.32388,478.92924 L405.32388,475.65828 L406.30536,475.00464 L407.28696,472.38732 L411.21192,471.73224 L411.21192,467.80764 L415.13796,467.80764 L416.11944,465.84384 L416.11944,461.91924 L422.00748,457.9932 L423.97056,454.72212 L422.98896,448.17876 L425.93352,444.90768 L425.93352,442.94388 L427.8966,442.94388 L428.87808,440.328 L428.87808,437.0556 L430.84008,435.09324 L428.87808,430.51356 L430.84008,429.20496 L431.82156,427.2426 L432.80304,422.66148 L436.7292,423.31656 L439.67376,426.58752 L441.63564,425.93388 L441.63564,422.00784 L439.67376,420.0456 L443.59872,417.42816 L448.50624,420.69912 L451.4508,418.73688 L452.4312,421.35276 L459.30192,419.3904 L461.26488,421.35276 L460.2834,423.31656 L457.33884,425.93388 L454.39428,429.85848 L457.33884,432.47592 L468.1344,428.54976 L473.04084,431.82228 L472.06044,428.54976 L474.02244,426.58752 L477.94848,428.54976 L478.92996,427.2426 L480.89304,431.1672 L482.85612,430.51356 L485.79948,437.71068 L485.79948,441.63528 L487.76256,446.87004 L489.72564,451.44972 L484.818,449.48736 L481.87452,453.41352 L480.89304,457.33812 L474.02244,459.3018 L471.07896,458.64672 L470.09748,460.61052 L464.20836,459.95544 L459.30192,464.53512 L456.35736,461.91924 L452.4312,462.57288 L450.46932,467.15256 L456.35736,467.80764 L457.33884,469.76988 L453.4128,471.0786 L452.4312,473.04084 L447.52476,469.76988 L442.61712,472.38732 L440.65524,476.31336 L434.76612,478.2756 L432.80304,476.967 L424.95204,477.62052 L422.00748,479.58432 L416.11944,479.58432 L415.13796,481.54668 L416.11944,486.12636 L413.17488,486.78144 L415.13796,495.9408 L414.15648,495.9408 L412.1934,497.90304 L408.26844,497.90304 L406.30536,497.90304 L406.30536,495.28716 L403.3608,486.12636 L405.32388,478.92924 Z M448.01496,467.562 L448.13772,468.13368 L447.52476,468.37932 L447.40188,466.98876 L447.7704,466.98876 L448.01496,467.562 Z"></path>
                    <text id="广东" fill="#4F4F69" font-family="PingFangSC-Regular, PingFang SC" font-size="13"
                          font-weight="normal">
                        <tspan x="433.04324" y="448.3838">广东</tspan>
                    </text>

                    <!-- 吉林 -->
                    <polygon id="吉林" stroke="#FFFFFF" fill="#94B8FB"
                             points="555.48072 109.26312 563.33172 109.26312 564.3132 116.46024 568.23816 121.03992 574.12728 119.73264 576.09036 121.695 582.95988 119.73264 583.94136 123.00372 586.88592 124.96596 592.77396 123.65724 596.7 125.62104 598.662 127.5834 597.6816 130.85436 598.662 133.47168 603.56952 133.47168 605.5326 140.6688 609.45756 140.6688 609.45756 137.39784 613.3836 135.43404 614.3652 140.01516 618.29124 149.17452 622.2162 148.51944 623.19768 145.24848 629.0868 143.93976 630.0672 141.97752 631.04868 144.59484 634.97484 142.63104 636.9378 147.8658 640.86276 151.13688 645.7704 150.48324 645.7704 152.44548 643.80732 158.33388 635.95632 161.6064 637.9194 162.25992 637.9194 165.531 633.99324 160.95132 633.99324 158.98896 633.01176 157.68024 630.0672 157.02516 628.10532 164.87736 624.17916 165.531 619.27164 172.07436 609.45756 172.07436 612.40212 178.6164 610.43904 181.88892 598.662 179.27148 599.64348 178.6164 596.7 175.34544 593.75544 177.30768 591.79248 181.23372 587.86632 187.7772 582.95988 189.08592 581.9784 188.43084 583.94136 183.85116 579.03384 177.30768 579.03384 172.728 580.01532 170.76576 579.03384 170.11068 574.12728 160.29768 574.12728 156.37164 572.16432 156.37164 569.21976 159.6426 567.25668 153.7542 562.35024 150.48324 560.38716 151.79196 556.46112 149.82816 558.42408 146.5572 554.49912 135.43404 545.66664 138.70644 542.72208 129.54564 544.68504 123.65724 540.759 117.11532 538.79604 116.46024 539.77752 112.53564 544.68504 115.8066 546.64704 114.49788 549.5916 117.11532 550.57308 112.53564"></polygon>
                    <text id="吉林" fill="#4F4F69" font-family="PingFangSC-Regular, PingFang SC" font-size="13"
                          font-weight="normal">
                        <tspan x="578.29334" y="149.5211">吉林</tspan>
                    </text>

                    <!-- 河北 -->
                    <path id="河北" stroke="#FFFFFF" fill="#4669F4"
                          d="M458.32032,209.36844 L456.35736,204.13368 L452.4312,202.17132 L458.32032,196.93656 L456.35736,196.28304 L455.37576,193.01052 L453.4128,191.04828 L451.4508,185.15988 L452.4312,183.85116 L451.4508,180.5802 L455.37576,178.6164 L454.39428,175.34544 L458.32032,170.11068 L462.24528,170.76576 L463.22688,177.96276 L466.17132,178.6164 L474.02244,173.38308 L475.00392,175.34544 L477.94848,172.07436 L483.83652,172.07436 L484.818,166.18608 L489.72564,165.531 L491.6886,163.56864 L494.63208,162.91356 L497.57664,166.18608 L496.59516,168.8034 L498.55812,171.41928 L500.5212,170.76576 L500.5212,175.34544 L498.55812,176.00052 L501.50268,182.54244 L511.31676,182.54244 L506.40924,189.73956 L511.31676,194.31924 L514.26132,193.6656 L516.22332,200.20764 L518.18628,202.82496 L514.26132,206.751 L513.27984,210.67716 L507.39072,215.91036 L502.48428,217.87416 L498.55812,216.56544 L497.57664,213.94812 L497.57664,213.29304 L495.61356,210.67716 L496.59516,208.05972 L493.6506,208.05972 L491.6886,205.4424 L491.6886,202.17132 L493.6506,202.17132 L493.6506,200.86272 L490.70712,198.89892 L488.74404,194.31924 L490.70712,192.35688 L485.79948,191.7018 L481.87452,186.4686 L478.92996,188.43084 L479.91156,190.39308 L476.967,190.39308 L475.9854,193.01052 L472.06044,193.6656 L474.02244,198.24528 L468.1344,202.82496 L469.11588,207.40464 L472.06044,209.36844 L476.967,208.05972 L478.92996,210.02208 L480.89304,208.05972 L483.83652,208.05972 L484.818,215.25684 L482.85612,217.87416 L482.85612,219.83652 L488.74404,223.76256 L492.6702,222.45384 L496.59516,227.03352 L490.70712,234.23064 L483.83652,234.23064 L479.91156,239.46384 L477.94848,238.15668 L477.94848,241.42764 L475.00392,241.42764 L472.06044,247.96968 L467.15292,253.85796 L469.11588,259.09272 L467.15292,260.40144 L465.18984,258.4392 L463.22688,260.40144 L462.24528,259.74792 L449.48784,256.4754 L446.54328,251.89572 L449.48784,248.62476 L449.48784,244.6986 L454.39428,236.84796 L452.4312,236.19288 L450.46932,229.65096 L447.52476,227.68716 L447.52476,223.76256 L450.46932,219.83652 L450.46932,217.87416 L451.4508,216.56544 L456.35736,215.91036 L458.32032,209.36844 Z M488.74404,200.86272 L487.76256,204.7872 L487.76256,207.40464 L484.818,206.751 L484.818,204.7872 L483.83652,202.17132 L488.74404,200.86272 Z"></path>
                    <text id="河北" fill="#4F4F69" font-family="PingFangSC-Regular, PingFang SC" font-size="13"
                          font-weight="normal">
                        <tspan x="454.67344" y="233.2251">河北</tspan>
                    </text>

                    <!-- 湖北 -->
                    <polygon id="湖北" stroke="#FFFFFF" fill="#F0F5FF"
                             points="410.23032 333.68076 409.24992 330.40836 404.3424 327.79236 405.32388 325.82868 403.3608 325.17504 402.37932 314.70696 404.3424 312.08964 409.24992 312.08964 409.24992 310.12584 405.32388 307.50996 405.32388 305.54616 401.39784 304.23744 403.3608 302.2752 411.21192 303.5838 414.15648 302.2752 416.11944 304.23744 419.064 302.2752 424.95204 312.08964 433.78464 316.01424 443.59872 314.70696 446.54328 316.66932 449.48784 314.70696 450.46932 323.21124 452.4312 324.51996 454.39428 323.21124 458.32032 324.51996 459.30192 327.79236 461.26488 329.10108 465.18984 327.13728 466.17132 329.75472 468.1344 329.75472 470.09748 333.02568 475.00392 335.64312 472.06044 340.87788 475.9854 348.07488 475.9854 353.3082 474.02244 355.272 469.11588 353.96328 462.24528 359.85168 455.37576 360.5052 451.4508 365.08488 449.48784 364.43136 448.50624 361.1604 449.48784 357.23424 447.52476 355.272 447.52476 353.3082 441.63564 359.1966 440.65524 358.54296 441.63564 354.61692 440.65524 353.96328 437.71068 357.23424 435.7476 356.58072 432.80304 357.88788 427.8966 351.99948 417.10104 348.72852 413.17488 350.69232 415.13796 354.61692 413.17488 355.92564 405.32388 354.61692 404.3424 356.58072 402.37932 356.58072 399.43476 363.77772 397.47288 360.5052 396.49128 361.1604 392.56524 353.3082 390.60216 353.96328 391.58376 347.4198 390.60216 344.80248 392.56524 342.1866 394.52832 343.4952 397.47288 341.5314 398.45436 342.84012 399.43476 341.5314 401.39784 342.84012 406.30536 337.60536 408.26844 338.91408"></polygon>
                    <text id="湖北" fill="#4F4F69" font-family="PingFangSC-Regular, PingFang SC" font-size="13"
                          font-weight="normal">
                        <tspan x="419.30414" y="334.6808">湖北</tspan>
                    </text>


                    <!-- 贵州 -->
                    <polygon id="贵州" stroke="#FFFFFF" fill="#7A92F5"
                             points="342.51336 391.91088 345.45792 388.63992 347.4198 390.60216 354.29052 389.94864 355.272 384.71388 358.21548 384.06024 359.19696 386.02248 367.04916 383.40516 365.08608 378.82548 362.14152 378.82548 359.19696 374.2458 363.123 369.66612 367.04916 372.93708 369.01104 372.282 368.02956 369.01104 369.01104 369.01104 369.99252 370.97484 369.99252 372.93708 370.97412 373.59072 372.93708 369.01104 378.82512 367.70232 378.82512 363.12264 380.7882 362.469 383.73276 363.77772 383.73276 365.74008 388.64028 364.43136 389.62068 370.97484 391.58376 370.97484 391.58376 374.89944 393.54672 373.59072 393.54672 377.51676 397.47288 377.51676 399.43476 373.59072 400.41624 376.86312 400.41624 382.09644 401.39784 386.67612 394.52832 393.87324 395.5098 395.18184 400.41624 393.2196 402.37932 395.18184 402.37932 398.45436 400.41624 399.76152 401.39784 401.72532 399.43476 405.65136 401.39784 406.305 402.37932 410.23104 400.41624 414.81072 396.49128 414.15564 397.47288 417.42816 392.56524 416.77308 392.56524 420.69912 389.62068 417.42816 387.6588 418.73688 386.6772 422.00784 383.73276 423.31656 382.75116 422.00784 379.8066 422.00784 376.86324 416.11944 373.91868 418.0818 374.90016 421.35276 372.93708 422.66148 365.08608 425.93388 365.08608 428.54976 363.123 430.51356 354.29052 425.93388 348.4014 431.1672 346.4394 429.20496 348.4014 425.93388 347.4198 424.62528 350.36436 422.00784 344.47644 414.81072 348.4014 404.34276 345.45792 400.4166 339.5688 402.37896 337.60572 399.108 337.60572 395.83692 336.62424 395.18184 339.5688 389.29356"></polygon>
                    <text id="贵州" fill="#4F4F69" font-family="PingFangSC-Regular, PingFang SC" font-size="13"
                          font-weight="normal">
                        <tspan x="356.49104" y="397.4915">贵州</tspan>
                    </text>

                    <!-- 山东 -->
                    <polygon id="山东" stroke="#FFFFFF" fill="#3D7DF7"
                             points="469.11588 259.09272 467.15292 253.85796 472.06044 247.96968 475.00392 241.42764 477.94848 241.42764 477.94848 238.15668 479.91156 239.46384 483.83652 234.23064 490.70712 234.23064 496.59516 227.03352 498.55812 229.65096 507.39072 229.65096 512.29836 236.84796 508.3722 238.81032 508.3722 241.42764 512.29836 244.6986 516.22332 244.6986 518.18628 240.77256 525.0558 234.23064 526.0374 229.65096 529.96344 225.07128 530.94492 234.23064 532.908 236.84796 540.759 239.46384 543.70356 237.5016 544.68504 239.46384 548.61 239.46384 549.5916 241.42764 548.61 247.96968 546.64704 249.93336 539.77752 248.62476 538.79604 251.24208 531.92652 252.5508 531.92652 255.16668 534.87108 257.78412 528.00036 259.09272 529.96344 263.6724 527.01888 261.05508 516.22332 269.5608 519.16788 276.75792 512.29836 276.10428 511.31676 274.79556 507.39072 276.10428 505.42764 280.68396 502.48428 281.3376 501.50268 285.26364 499.53972 285.26364 498.55812 281.99268 496.59516 281.3376 492.6702 284.61 489.72564 282.6462 488.74404 284.61 483.83652 277.413 479.91156 278.06664 478.92996 281.99268 476.967 282.6462 470.09748 282.6462 468.1344 278.72172 461.26488 275.4492 464.20836 270.86952 466.17132 270.21588 469.11588 265.6362 475.9854 260.40144 467.15292 264.3276"></polygon>
                    <text id="山东" fill="#4F4F69" font-family="PingFangSC-Regular, PingFang SC" font-size="13"
                          font-weight="normal">
                        <tspan x="491.92764" y="256.1667">山东</tspan>
                    </text>

                    <!-- 山东 -->
                    <polygon id="江西" stroke="#FFFFFF" fill="#94B8FB"
                             points="455.37576 375.55452 453.4128 372.282 454.39428 368.3574 451.4508 365.08488 455.37576 360.5052 462.24528 359.85168 469.11588 353.96328 474.02244 355.272 475.9854 353.3082 477.94848 353.96328 482.85612 350.03724 484.818 351.99948 482.85612 354.61692 482.85612 356.58072 487.76256 355.272 486.78108 353.3082 487.76256 351.99948 491.6886 356.58072 497.57664 357.23424 499.53972 359.85168 497.57664 363.12264 497.57664 365.08488 501.50268 369.01104 502.48428 375.55452 502.48428 376.20804 500.5212 379.47912 494.63208 383.40516 491.6886 380.78772 485.79948 386.02248 487.76256 391.25724 486.78108 393.87324 480.89304 398.45436 481.87452 403.68768 478.92996 406.95864 479.91156 408.92244 476.967 412.1934 475.00392 421.35276 473.04084 422.00784 474.02244 426.58752 472.06044 428.54976 473.04084 431.82228 468.1344 428.54976 457.33884 432.47592 454.39428 429.85848 457.33884 425.93388 460.2834 423.31656 461.26488 421.35276 459.30192 419.3904 452.4312 421.35276 451.4508 418.73688 452.4312 409.57596 455.37576 408.26736 452.4312 407.61372 453.4128 401.72532 451.4508 401.07024 451.4508 396.49056 449.48784 393.87324 450.46932 391.25724 448.50624 389.94864 448.50624 386.67612 449.48784 381.4428"></polygon>
                    <text id="江西" fill="#4F4F69" font-family="PingFangSC-Regular, PingFang SC" font-size="13"
                          font-weight="normal">
                        <tspan x="456.88184" y="392.2573">江西</tspan>
                    </text>

                    <!-- 河南 -->
                    <polygon id="路径" stroke="#FFFFFF" fill="#7A92F5"
                             points="412.1934 282.6462 417.10104 281.99268 421.026 279.37524 424.95204 278.72172 427.8966 275.4492 430.84008 275.4492 430.84008 272.17824 438.69216 273.48696 442.61712 271.5246 448.50624 266.28984 449.48784 256.4754 462.24528 259.74792 463.22688 260.40144 465.18984 258.4392 467.15292 260.40144 469.11588 259.09272 467.15292 264.3276 475.9854 260.40144 469.11588 265.6362 466.17132 270.21588 464.20836 270.86952 461.26488 275.4492 468.1344 278.72172 470.09748 282.6462 476.967 282.6462 476.967 285.26364 480.89304 287.22744 481.87452 292.46076 476.967 295.73172 475.00392 291.80712 471.07896 290.4984 470.09748 292.46076 470.09748 296.3868 468.1344 298.34904 467.15292 303.5838 462.24528 304.23744 462.24528 306.20124 465.18984 308.16348 466.17132 312.08964 470.09748 314.70696 473.04084 313.39824 474.02244 324.51996 469.11588 325.82868 468.1344 329.75472 466.17132 329.75472 465.18984 327.13728 461.26488 329.10108 459.30192 327.79236 458.32032 324.51996 454.39428 323.21124 452.4312 324.51996 450.46932 323.21124 449.48784 314.70696 446.54328 316.66932 443.59872 314.70696 433.78464 316.01424 424.95204 312.08964 419.064 302.2752 419.064 298.34904 415.13796 293.76936 415.13796 289.18968 413.17488 287.88108"></polygon>
                    <text id="河南" fill="#4F4F69" font-family="PingFangSC-Regular, PingFang SC" font-size="13"
                          font-weight="normal">
                        <tspan x="433.04454" y="294.1158">河南</tspan>
                    </text>

                    <!-- 辽宁 -->
                    <polygon id="辽宁" stroke="#FFFFFF" fill="#7A92F5"
                             points="511.31676 182.54244 513.27984 177.96276 511.31676 176.65404 512.29836 168.14832 514.26132 166.8396 518.18628 169.45704 521.13084 176.65404 525.0558 170.76576 535.85148 164.87736 538.79604 165.531 541.74048 161.6064 545.66664 162.25992 545.66664 159.6426 550.57308 161.6064 554.49912 160.29768 556.46112 157.68024 559.40568 157.02516 560.38716 151.79196 562.35024 150.48324 567.25668 153.7542 569.21976 159.6426 572.16432 156.37164 574.12728 156.37164 574.12728 160.29768 579.03384 170.11068 580.01532 170.76576 579.03384 172.728 579.03384 177.30768 583.94136 183.85116 581.9784 188.43084 582.95988 189.08592 570.20124 198.89892 565.2948 206.751 557.4426 206.751 554.49912 210.67716 554.49912 216.56544 542.72208 216.56544 536.83296 221.14512 531.92652 221.79876 529.96344 217.21908 534.87108 213.94812 532.908 208.71336 542.72208 196.28304 541.74048 191.7018 538.79604 189.73956 532.908 189.73956 526.0374 198.89892 518.18628 202.82496 516.22332 200.20764 514.26132 193.6656 511.31676 194.31924 506.40924 189.73956"></polygon>
                    <text id="辽宁" fill="#4F4F69" font-family="PingFangSC-Regular, PingFang SC" font-size="13"
                          font-weight="normal">
                        <tspan x="536.62054" y="179.3907">辽宁</tspan>
                    </text>

                    <!-- 山西 -->
                    <polygon id="山西" stroke="#FFFFFF" fill="#7A92F5"
                             points="418.08252 221.14512 421.026 213.29304 420.0456 211.33068 422.98896 210.67716 423.97056 207.40464 429.85968 208.05972 433.78464 198.24528 438.69216 199.554 443.59872 196.28304 447.52476 196.93656 450.46932 194.31924 453.4128 194.31924 453.4128 191.04828 455.37576 193.01052 456.35736 196.28304 458.32032 196.93656 452.4312 202.17132 456.35736 204.13368 458.32032 209.36844 456.35736 215.91036 451.4508 216.56544 450.46932 217.87416 450.46932 219.83652 447.52476 223.76256 447.52476 227.68716 450.46932 229.65096 452.4312 236.19288 454.39428 236.84796 449.48784 244.6986 449.48784 248.62476 446.54328 251.89572 449.48784 256.4754 448.50624 266.28984 442.61712 271.5246 438.69216 273.48696 430.84008 272.17824 430.84008 275.4492 427.8966 275.4492 424.95204 278.72172 421.026 279.37524 417.10104 281.99268 412.1934 282.6462 410.23032 281.3376 410.23032 278.06664 414.15648 266.94492 413.17488 259.74792 412.1934 246.66096 417.10104 236.84796 413.17488 232.26684 413.17488 228.99588 417.10104 224.4162"></polygon>
                    <text id="山西" fill="#4F4F69" font-family="PingFangSC-Regular, PingFang SC" font-size="13"
                          font-weight="normal">
                        <tspan x="421.26414" y="237.848">山西</tspan>
                    </text>

                    <!-- 安徽 -->
                    <polygon id="安徽" stroke="#FFFFFF" fill="#CDDCFE"
                             points="481.87452 292.46076 480.89304 287.22744 476.967 285.26364 476.967 282.6462 478.92996 281.99268 484.818 285.26364 487.76256 290.4984 492.6702 291.15204 494.63208 295.73172 498.55812 295.07808 496.59516 302.92872 497.57664 304.23744 499.53972 302.92872 500.5212 309.4722 505.42764 310.12584 507.39072 306.85488 510.33528 308.81856 510.33528 314.05188 503.46576 312.74316 504.44616 317.97792 502.48428 318.63156 501.50268 321.90408 507.39072 327.79236 505.42764 330.40836 506.40924 332.37204 512.29836 331.71696 513.27984 333.68076 515.24172 334.3344 515.24172 334.98948 513.27984 340.87788 511.31676 341.5314 512.29836 344.80248 507.39072 346.11108 507.39072 351.34596 505.42764 355.272 499.53972 359.85168 497.57664 357.23424 491.6886 356.58072 487.76256 351.99948 486.78108 353.3082 487.76256 355.272 482.85612 356.58072 482.85612 354.61692 484.818 351.99948 482.85612 350.03724 477.94848 353.96328 475.9854 353.3082 475.9854 348.07488 472.06044 340.87788 475.00392 335.64312 470.09748 333.02568 468.1344 329.75472 469.11588 325.82868 474.02244 324.51996 473.04084 313.39824 470.09748 314.70696 466.17132 312.08964 465.18984 308.16348 462.24528 306.20124 462.24528 304.23744 467.15292 303.5838 468.1344 298.34904 470.09748 296.3868 470.09748 292.46076 471.07896 290.4984 475.00392 291.80712 476.967 295.73172"></polygon>
                    <text id="安徽" fill="#4F4F69" font-family="PingFangSC-Regular, PingFang SC" font-size="13"
                          font-weight="normal">
                        <tspan x="475.24404" y="321.5962">安徽</tspan>
                    </text>

                    <!-- 福建  -->
                    <polygon id="路径" stroke="#FFFFFF" fill="#7A92F5"
                             points="502.48428 376.20804 506.40924 376.86312 505.42764 380.1342 507.39072 388.63992 511.31676 389.29356 515.24172 385.36896 517.2048 391.25724 522.11244 389.29356 524.0754 393.2196 528.00036 395.18184 527.01888 397.14564 522.11244 397.79928 522.11244 399.76152 524.0754 400.4166 525.0558 404.99628 522.11244 406.305 524.0754 408.26736 520.14936 407.61372 519.16788 411.53976 517.2048 411.53976 519.16788 419.3904 517.2048 421.35276 514.26132 423.31656 513.27984 425.2788 511.31676 423.97008 507.39072 427.89624 504.44616 432.47592 502.48428 432.47592 502.48428 433.78464 499.53972 435.09324 499.53972 437.71068 495.61356 440.328 494.63208 443.59908 491.6886 446.2164 487.76256 446.87004 485.79948 441.63528 485.79948 437.71068 482.85612 430.51356 480.89304 431.1672 478.92996 427.2426 477.94848 428.54976 474.02244 426.58752 473.04084 422.00784 475.00392 421.35276 476.967 412.1934 479.91156 408.92244 478.92996 406.95864 481.87452 403.68768 480.89304 398.45436 486.78108 393.87324 487.76256 391.25724 485.79948 386.02248 491.6886 380.78772 494.63208 383.40516 500.5212 379.47912"></polygon>
                    <text id="福建" fill="#4F4F69" font-family="PingFangSC-Regular, PingFang SC" font-size="13"
                          font-weight="normal">
                        <tspan x="487.02114" y="412.5398">福建</tspan>
                    </text>

                    <!-- 浙江  -->
                    <polygon id="浙江" stroke="#FFFFFF" fill="#5172F5"
                             points="499.53972 359.85168 505.42764 355.272 507.39072 351.34596 507.39072 346.11108 512.29836 344.80248 511.31676 341.5314 513.27984 340.87788 515.24172 334.98948 515.24172 334.3344 519.16788 333.68076 525.0558 338.91408 529.96344 335.64312 533.88948 340.87788 541.74048 338.91408 549.5916 337.60536 551.55456 340.2228 552.53616 348.72852 548.61 349.3836 548.61 351.99948 543.70356 357.88788 545.66664 367.70232 541.74048 367.70232 541.74048 374.2458 538.79604 375.55452 538.79604 377.51676 535.85148 377.51676 536.83296 380.1342 533.88948 381.4428 531.92652 389.29356 527.01888 390.60216 527.01888 393.2196 529.96344 395.18184 528.00036 395.18184 524.0754 393.2196 522.11244 389.29356 517.2048 391.25724 515.24172 385.36896 511.31676 389.29356 507.39072 388.63992 505.42764 380.1342 506.40924 376.86312 502.48428 376.20804 502.48428 375.55452 501.50268 369.01104 497.57664 365.08488 497.57664 363.12264"></polygon>
                    <text id="浙江" fill="#4F4F69" font-family="PingFangSC-Regular, PingFang SC" font-size="13"
                          font-weight="normal">
                        <tspan x="511.55584" y="365.4314">浙江</tspan>
                    </text>

                    <!-- 江苏  -->
                    <polygon id="江苏" stroke="#FFFFFF" fill="#C2CDF7"
                             points="478.92996 281.99268 479.91156 278.06664 483.83652 277.413 488.74404 284.61 489.72564 282.6462 492.6702 284.61 496.59516 281.3376 498.55812 281.99268 499.53972 285.26364 501.50268 285.26364 502.48428 281.3376 505.42764 280.68396 507.39072 276.10428 511.31676 274.79556 512.29836 276.10428 512.29836 278.72172 516.22332 282.6462 523.09392 285.91872 529.96344 305.54616 530.94492 311.43456 534.87108 314.05188 535.85148 318.63156 540.759 321.249 541.74048 325.82868 541.74048 327.13728 532.908 323.21124 531.92652 325.17504 534.87108 328.446 532.908 329.10108 529.96344 335.64312 525.0558 338.91408 519.16788 333.68076 515.24172 334.3344 513.27984 333.68076 512.29836 331.71696 506.40924 332.37204 505.42764 330.40836 507.39072 327.79236 501.50268 321.90408 502.48428 318.63156 504.44616 317.97792 503.46576 312.74316 510.33528 314.05188 510.33528 308.81856 507.39072 306.85488 505.42764 310.12584 500.5212 309.4722 499.53972 302.92872 497.57664 304.23744 496.59516 302.92872 498.55812 295.07808 494.63208 295.73172 492.6702 291.15204 487.76256 290.4984 484.818 285.26364"></polygon>
                    <text id="江苏" fill="#4F4F69" font-family="PingFangSC-Regular, PingFang SC" font-size="13"
                          font-weight="normal">
                        <tspan x="506.61864" y="308.5079">江苏</tspan>
                    </text>


                    <!-- 重庆  -->
                    <polygon id="重庆" stroke="#FFFFFF" fill="#F0F5FF"
                             points="391.58376 325.82868 388.64028 322.5576 389.62068 318.63156 391.58376 317.97792 397.47288 321.90408 399.43476 325.17504 403.3608 325.17504 405.32388 325.82868 404.3424 327.79236 409.24992 330.40836 410.23032 333.68076 408.26844 338.91408 406.30536 337.60536 401.39784 342.84012 399.43476 341.5314 398.45436 342.84012 397.47288 341.5314 394.52832 343.4952 392.56524 342.1866 390.60216 344.80248 391.58376 347.4198 390.60216 353.96328 392.56524 353.3082 396.49128 361.1604 397.47288 360.5052 399.43476 363.77772 399.43476 373.59072 397.47288 377.51676 393.54672 377.51676 393.54672 373.59072 391.58376 374.89944 391.58376 370.97484 389.62068 370.97484 388.64028 364.43136 383.73276 365.74008 383.73276 363.77772 380.7882 362.469 378.82512 363.12264 378.82512 367.70232 372.93708 369.01104 370.97412 373.59072 369.99252 372.93708 369.99252 370.97484 369.01104 369.01104 368.02956 369.01104 369.01104 372.282 367.04916 372.93708 366.06756 367.70232 361.16004 366.3936 360.17844 361.81392 357.23508 361.1604 355.272 357.88788 360.17844 352.65456 358.21548 349.3836 359.19696 346.76628 361.16004 344.14884 366.06756 348.07488 369.99252 346.11108 371.9556 350.69232 374.90016 350.69232 379.8066 341.5314 378.82512 339.56916 379.8066 338.26044 384.71424 338.26044 387.6588 328.446"></polygon>
                    <text id="重庆" fill="#4F4F69" font-family="PingFangSC-Regular, PingFang SC" font-size="13"
                          font-weight="normal">
                        <tspan x="369.25114" y="349.0739">重庆</tspan>
                    </text>


                    <!-- 宁夏  -->
                    <polygon id="宁夏" stroke="#FFFFFF" fill="#C2CDF7"
                             points="344.47644 240.11892 361.16004 234.88416 362.14152 221.14512 367.04916 212.6394 371.9556 211.33068 373.91868 217.21908 369.01104 227.03352 371.9556 228.99588 377.84472 230.30448 381.76968 233.57556 377.84472 237.5016 377.84472 245.3538 369.99252 245.3538 369.99252 249.93336 368.02956 253.20444 369.01104 254.51304 369.01104 257.78412 372.93708 259.74792 373.91868 264.3276 370.97412 266.28984 368.02956 266.28984 369.01104 271.5246 367.04916 272.83332 366.06756 270.21588 364.1046 270.86952 363.123 270.21588 364.1046 269.5608 363.123 269.5608 361.16004 268.25208 360.17844 265.6362 356.25348 264.98112 355.272 261.71016 357.23508 259.74792 354.29052 251.24208 355.272 249.27828 350.36436 243.39 347.4198 243.39 347.4198 240.11892"></polygon>
                    <text id="宁夏" fill="#4F4F69" font-family="PingFangSC-Regular, PingFang SC" font-size="13"
                          font-weight="normal">
                        <tspan x="349.62304" y="243.0813">宁夏</tspan>
                    </text>

                    <!-- 海南  -->
                    <polygon id="路径" stroke="#FFFFFF" fill="#94B8FB"
                             points="392.56524 509.0262 397.47288 505.10016 399.43476 500.52048 403.3608 499.21176 408.26844 497.90304 412.1934 497.90304 414.15648 495.9408 415.13796 495.9408 420.0456 500.52048 422.00748 499.86684 415.13796 512.29716 414.15648 519.49428 410.23032 520.80288 408.26844 524.0754 406.30536 524.0754 404.3424 528 396.49128 525.38256 392.56524 522.76668"></polygon>
                    <text id="海南" fill="#4F4F69" font-family="PingFangSC-Regular, PingFang SC" font-size="13"
                          font-weight="normal">
                        <tspan x="393.78694" y="512.6456">海南</tspan>
                    </text>

                    <!-- 台湾 -->
                    <path id="台湾" stroke="#FFFFFF" fill="#94B8FB"
                          d="M540.759,424.62528 L541.74048,425.2788 L539.77752,429.20496 L540.759,431.82228 L537.81444,439.67292 L534.87108,453.41352 L530.94492,459.95544 L528.98196,469.11624 L528.00036,471.0786 L527.01888,465.1902 L522.11244,461.26416 L520.14936,454.06704 L521.13084,444.90768 L530.94492,424.62528 L536.83296,420.69912 L540.759,424.62528 Z M558.0372,414.40476 L558.54708,414.40476 L558.54708,414.17448 L558.0372,414.17448 L558.0372,414.40476 Z"></path>
                    <text id="台湾" fill="#4F4F69" font-family="PingFangSC-Regular, PingFang SC" font-size="13"
                          font-weight="normal">
                        <tspan x="517.48734" y="447.2041">台湾</tspan>
                    </text>

                    <!-- 北京 -->
                    <polygon id="路径" stroke="#FFFFFF" fill="#2970F6"
                             points="490.70712 198.89892 489.72564 200.20764 488.74404 200.86272 483.83652 202.17132 484.818 204.7872 484.818 206.751 483.83652 208.05972 480.89304 208.05972 478.92996 210.02208 476.967 208.05972 472.06044 209.36844 469.11588 207.40464 468.1344 202.82496 474.02244 198.24528 472.06044 193.6656 475.9854 193.01052 476.967 190.39308 479.91156 190.39308 478.92996 188.43084 481.87452 186.4686 485.79948 191.7018 490.70712 192.35688 488.74404 194.31924"></polygon>
                    <text id="北京" fill="#4F4F69" font-family="PingFangSC-Regular, PingFang SC" font-size="13"
                          font-weight="normal">
                        <tspan x="466.40734" y="199.2453">北京</tspan>
                    </text>

                    <!-- 天津 -->
                    <polygon id="路径" stroke="#FFFFFF" fill="#2970F6"
                             points="483.83652 208.05972 484.818 206.751 487.76256 207.40464 487.76256 204.7872 488.74404 200.86272 489.72564 200.20764 490.70712 198.89892 493.6506 200.86272 493.6506 202.17132 491.6886 202.17132 491.6886 205.4424 493.6506 208.05972 496.59516 208.05972 495.61356 210.67716 497.57664 213.29304 497.57664 213.94812 495.61356 215.25684 492.6702 222.45384 488.74404 223.76256 482.85612 219.83652 482.85612 217.87416 484.818 215.25684"></polygon>
                    <text id="天津" fill="#4F4F69" font-family="PingFangSC-Regular, PingFang SC" font-size="13"
                          font-weight="normal">
                        <tspan x="482.45144" y="216.9586">天津</tspan>
                    </text>

                    <!-- 上海 -->
                    <polygon id="上海" stroke="#FFFFFF" fill="#2970F6"
                             points="529.96344 335.64312 532.908 329.10108 534.87108 328.446 531.92652 325.17504 532.908 323.21124 541.74048 327.13728 540.759 333.68076 541.74048 338.91408 533.88948 340.87788"></polygon>
                    <text id="上海" fill="#4F4F69" font-family="PingFangSC-Regular, PingFang SC" font-size="13"
                          font-weight="normal">
                        <tspan x="522.35144" y="332.7205">上海</tspan>
                    </text>

                    <!-- 香港 -->
                    <polygon id="香港" stroke="#FFFFFF" fill="#2970F6"
                             points="459.30192 463.88148 458.32032 467.80764 456.35736 467.80764 451.4508 467.80764 450.46932 467.15256 451.4508 463.88148 454.39428 461.91924 456.35736 461.91924 457.33884 461.91924 457.33884 463.88148"></polygon>
                    <text id="香港" fill="#4F4F69" font-family="PingFangSC-Regular, PingFang SC" font-size="13"
                          font-weight="normal">
                        <tspan x="452.28854" y="471.3483">香港</tspan>
                    </text>

                    <!-- 澳门 -->
                    <polygon id="澳门" stroke="#1E90FF" fill="#FFFFFF"
                             points="448.01496 467.562 448.13772 468.13368 447.52476 468.37932 447.40188 466.98876 447.7704 466.98876"></polygon>
                    <text id="澳门" fill="#4F4F69" font-family="PingFangSC-Regular, PingFang SC" font-size="13"
                          font-weight="normal">
                        <tspan x="424.51414" y="478.6116">澳门</tspan>
                    </text>

                    <!-- 南海诸岛 -->
                    <path id="南海诸岛" stroke="#1E90FF" fill="#F0F5FF"
                          d="M586.49292,429.07392 L593.93712,437.26248 L602.44476,438.00696 L618.39672,432.79596 L631.15812,426.09624 L641.79276,426.09624 L646.04664,433.54044 L649.23696,426.09624 L654.55428,426.09624 L654.55428,425.35176 L591.81024,425.35176 L586.49292,429.07392 Z M600.31788,442.47348 L606.69864,440.98464 L603.5082,448.42884 L598.191,449.91768 L600.31788,442.47348 Z M599.25444,459.5952 L601.38132,466.29492 L602.44476,466.29492 L600.31788,459.5952 L599.25444,459.5952 Z M603.5082,475.97244 L599.25444,481.9278 L600.31788,481.9278 L605.6352,475.97244 L603.5082,475.97244 Z M592.87368,493.83852 L595.00056,499.79388 L596.064,499.79388 L595.00056,493.83852 L592.87368,493.83852 Z M610.9524,513.19344 L617.33316,510.21576 L618.39672,510.21576 L613.0794,513.19344 L610.9524,513.19344 Z M625.84092,500.53836 L632.22168,491.6052 L633.28512,491.6052 L627.9678,500.53836 L625.84092,500.53836 Z M637.53888,479.69448 L640.72932,473.73912 L642.8562,473.73912 L639.66588,479.69448 L637.53888,479.69448 Z M640.72932,462.57288 L640.72932,455.87304 L642.8562,455.87304 L642.8562,462.57288 L640.72932,462.57288 Z M641.79276,449.1732 L644.98308,443.96232 L646.04664,443.96232 L642.8562,449.1732 L641.79276,449.1732 Z M648.17352,438.75132 L652.42728,432.79596 L653.49084,432.79596 L650.3004,438.75132 L648.17352,438.75132 Z M586.49292,429.07392 L586.49292,524.3598 L654.55428,524.3598 L654.55428,425.35176 L653.49084,425.35176 L653.49084,523.61532 L587.55636,523.61532 L587.55636,429.07392 L586.49292,429.07392 Z"></path>
                    <text id="南海诸岛" fill="#4F4F69" font-family="PingFangSC-Regular, PingFang SC" font-size="13"
                          font-weight="normal">
                        <tspan x="594.02354" y="511.3575">南海诸岛</tspan>
                    </text>
                </g>
                <!-- 数据分级示意 -->
                <g transform="translate(774.000000, 18.000000)">
                    <g stroke-dasharray="0,0">
                        <defs>
                            <path d="M8,0 L136,0 C140.418278,-8.11624501e-16 144,3.581722 144,8 L144,205 C144,209.418278 140.418278,213 136,213 L8,213 C3.581722,213 5.41083001e-16,209.418278 0,205 L0,8 C-5.41083001e-16,3.581722 3.581722,8.11624501e-16 8,0 Z"
                                  id="path-1"></path>
                        </defs>
                        <use fill="black" fill-opacity="1" filter="url(#filter-2)" xlink:href="#path-1"></use>
                        <use stroke="#EAEFF4" stroke-width="1.06952381" fill="#FFFFFF" fill-rule="evenodd"
                             xlink:href="#path-1"></use>
                    </g>
                    <g id="编组-86" transform="translate(23.000000, 26.000000)" fill-rule="nonzero">
                        <!-- 第1层 -->
                        <path d="M3.5,2 L16.5,2 C18.4329966,2 20,3.56700338 20,5.5 L20,12.5 C20,14.4329966 18.4329966,16 16.5,16 L3.5,16 C1.56700338,16 0,14.4329966 0,12.5 L0,5.5 C0,3.56700338 1.56700338,2 3.5,2"
                              id="路径备份-5" fill="#155CE3"></path>
                        <text id="&gt;120" fill="#333333" font-family="PingFangSC-Regular, PingFang SC" font-size="13"
                              font-weight="normal">
                            <tspan x="30" y="14">&gt;120</tspan>
                        </text>
                        <!-- 第2层 -->
                        <path d="M3.5,27 L16.5,27 C18.4329966,27 20,28.5670034 20,30.5 L20,37.5 C20,39.4329966 18.4329966,41 16.5,41 L3.5,41 C1.56700338,41 0,39.4329966 0,37.5 L0,30.5 C0,28.5670034 1.56700338,27 3.5,27"
                              id="路径备份" fill="#1761ED"></path>
                        <text id="100~120" fill="#333333" font-family="PingFangSC-Regular, PingFang SC" font-size="13"
                              font-weight="normal">
                            <tspan x="30" y="39">100~120</tspan>
                        </text>
                        <!-- 第3层 -->
                        <path d="M3.5,51 L16.5,51 C18.4329966,51 20,52.5670034 20,54.5 L20,61.5 C20,63.4329966 18.4329966,65 16.5,65 L3.5,65 C1.56700338,65 0,63.4329966 0,61.5 L0,54.5 C0,52.5670034 1.56700338,51 3.5,51"
                              id="路径备份-2" fill="#2970F6"></path>
                        <text id="80~100" fill="#333333" font-family="PingFangSC-Regular, PingFang SC" font-size="13"
                              font-weight="normal">
                            <tspan x="30" y="63">80~100</tspan>
                        </text>
                        <!-- 第4层 -->
                        <path d="M3.5,75 L16.5,75 C18.4329966,75 20,76.5670034 20,78.5 L20,85.5 C20,87.4329966 18.4329966,89 16.5,89 L3.5,89 C1.56700338,89 0,87.4329966 0,85.5 L0,78.5 C0,76.5670034 1.56700338,75 3.5,75"
                              id="路径备份-4" fill="#6884F5"></path>
                        <text id="60~80" fill="#333333" font-family="PingFangSC-Regular, PingFang SC" font-size="13"
                              font-weight="normal">
                            <tspan x="30" y="87">60~80</tspan>
                        </text>
                        <!-- 第5层 -->
                        <path d="M3.5,99 L16.5,99 C18.4329966,99 20,100.567003 20,102.5 L20,109.5 C20,111.432997 18.4329966,113 16.5,113 L3.5,113 C1.56700338,113 0,111.432997 0,109.5 L0,102.5 C0,100.567003 1.56700338,99 3.5,99"
                              id="路径" fill="#A0B6FB"></path>
                        <text id="40~60" fill="#333333" font-family="PingFangSC-Regular, PingFang SC" font-size="13"
                              font-weight="normal">
                            <tspan x="30" y="111">40~60</tspan>
                        </text>
                        <!-- 第6层 -->
                        <path d="M3.5,123 L16.5,123 C18.4329966,123 20,124.567003 20,126.5 L20,133.5 C20,135.432997 18.4329966,137 16.5,137 L3.5,137 C1.56700338,137 0,135.432997 0,133.5 L0,126.5 C0,124.567003 1.56700338,123 3.5,123"
                              id="路径" fill="#CDDCFE"></path>
                        <text id="20~40" fill="#333333" font-family="PingFangSC-Regular, PingFang SC" font-size="13"
                              font-weight="normal">
                            <tspan x="30" y="135">20~40</tspan>
                        </text>
                        <!-- 第7层 -->
                        <path d="M3.5,147 L16.5,147 C18.4329966,147 20,148.567003 20,150.5 L20,157.5 C20,159.432997 18.4329966,161 16.5,161 L3.5,161 C1.56700338,161 0,159.432997 0,157.5 L0,150.5 C0,148.567003 1.56700338,147 3.5,147"
                              id="路径" fill="#F0F5FF"></path>
                        <text id="0~20" fill="#333333" font-family="PingFangSC-Regular, PingFang SC" font-size="13"
                              font-weight="normal">
                            <tspan x="30" y="159">0~20</tspan>
                        </text>
                    </g>
                </g>
            </g>
        </g>
    </g>
</svg>